<svg width="24" height="24" viewBox="0 0 24 24" fill="none" xmlns="http://www.w3.org/2000/svg">
<g clip-path="url(#clip0_380_2531)">
<path d="M12.0122 23C10.2975 23 8.58277 22.9992 6.86805 23C5.9917 23 5.16597 22.831 4.43976 22.3249C3.62246 21.7556 3.13579 20.9747 3.04892 20.0101C2.89204 18.2662 3.10037 16.5559 3.77513 14.9243C4.17492 13.9564 4.77545 13.123 5.75807 12.612C6.37294 12.292 7.03252 12.1403 7.72246 12.1526C7.94007 12.1567 8.16949 12.2625 8.36854 12.3675C8.68905 12.5365 8.9851 12.7473 9.29633 12.9335C11.1022 14.0196 12.9097 14.0187 14.7146 12.931C14.9651 12.7801 15.2207 12.6341 15.4569 12.4627C15.8887 12.1477 16.3636 12.1083 16.8772 12.1813C18.2782 12.3815 19.2676 13.1279 19.9347 14.3181C20.5302 15.3812 20.7984 16.5354 20.9173 17.7248C20.9789 18.3424 21.0076 18.9658 20.9992 19.5868C20.9755 21.407 19.6564 22.7818 17.7873 22.9606C17.536 22.9844 17.2829 22.9975 17.0307 22.9983C15.3573 23.0008 13.6848 23 12.0122 23ZM11.9928 21.7687C11.9928 21.7679 11.9928 21.7671 11.9928 21.7655C13.7776 21.7655 15.5623 21.7802 17.347 21.7605C18.8416 21.7441 19.7534 20.8221 19.7374 19.3719C19.7315 18.8264 19.7104 18.2776 19.6471 17.7354C19.5332 16.7626 19.3249 15.8094 18.8374 14.935C18.3347 14.0351 17.6102 13.4536 16.5205 13.392C16.4226 13.3863 16.3087 13.4093 16.2261 13.4568C15.9064 13.6422 15.5994 13.8473 15.2831 14.0384C14.4152 14.5618 13.4722 14.8809 12.455 14.958C11.0617 15.0638 9.7889 14.6946 8.61567 13.972C8.33058 13.7964 8.04972 13.616 7.7621 13.4454C7.70053 13.4084 7.61871 13.383 7.54786 13.3855C7.11349 13.4011 6.70273 13.5069 6.32234 13.7161C5.61553 14.1032 5.22079 14.7381 4.92727 15.4354C4.36132 16.7823 4.23818 18.203 4.27529 19.6385C4.29469 20.3989 4.63629 21.0223 5.3296 21.4234C5.80362 21.6974 6.32824 21.7687 6.86973 21.7687C8.57856 21.7679 10.2857 21.7687 11.9928 21.7687Z" fill="black"/>
<path d="M17.0704 7.05704C17.0695 9.85665 14.7636 12.1026 11.8739 12.1173C9.00365 12.1321 6.65887 9.84927 6.6673 7.04801C6.67574 4.24512 8.99522 1.99509 11.8731 2.00001C14.7534 2.00411 17.0704 4.25906 17.0704 7.05704ZM15.8035 7.05129C15.7942 4.92021 14.0466 3.22715 11.8604 3.23207C9.67251 3.23699 7.92657 4.93989 7.93248 7.06524C7.93754 9.18895 9.70118 10.8984 11.8747 10.8861C14.066 10.8738 15.8128 9.16762 15.8035 7.05129Z" fill="black"/>
</g>
<defs>
<clipPath id="clip0_380_2531">
<rect width="18" height="21" fill="white" transform="translate(3 2)"/>
</clipPath>
</defs>
</svg>
