<svg width="24" height="24" viewBox="0 0 24 24" fill="none" xmlns="http://www.w3.org/2000/svg">
<path d="M12 24C18.6274 24 24 18.6274 24 12C24 5.37258 18.6274 0 12 0C5.37258 0 0 5.37258 0 12C0 18.6274 5.37258 24 12 24Z" fill="#E7E8EA"/>
<path d="M12 10.6419C14.1798 10.6419 15.9469 8.87484 15.9469 6.69504C15.9469 4.51524 14.1798 2.74817 12 2.74817C9.82019 2.74817 8.05311 4.51524 8.05311 6.69504C8.05311 8.87484 9.82019 10.6419 12 10.6419Z" fill="#F6F7F8"/>
<path d="M12 21.2512C10.5499 21.2512 9.13876 20.7818 7.97759 19.9132C6.81641 19.0446 5.96756 17.8235 5.55795 16.4325C4.85107 14.032 6.6506 11.625 9.15326 11.625H14.8467C17.3494 11.625 19.1489 14.0311 18.442 16.4316C18.0326 17.8228 17.1838 19.0441 16.0226 19.9128C14.8614 20.7816 13.4502 21.2511 12 21.2512Z" fill="white"/>
</svg>
