<svg width="24" height="24" viewBox="0 0 24 24" fill="none" xmlns="http://www.w3.org/2000/svg">
<path d="M12 22C17.5228 22 22 17.5228 22 12C22 6.47715 17.5228 2 12 2C6.47715 2 2 6.47715 2 12C2 17.5228 6.47715 22 12 22Z" fill="#F0F0F0"/>
<path d="M4.06718 5.9118C3.28167 6.9338 2.68937 8.11173 2.34448 9.39138H7.54675L4.06718 5.9118Z" fill="#0052B4"/>
<path d="M21.6554 9.3914C21.3105 8.11179 20.7182 6.93386 19.9327 5.91187L16.4532 9.3914H21.6554Z" fill="#0052B4"/>
<path d="M2.34448 14.6088C2.6894 15.8884 3.28171 17.0663 4.06718 18.0883L7.54663 14.6088H2.34448Z" fill="#0052B4"/>
<path d="M18.0882 4.06728C17.0662 3.28177 15.8883 2.68947 14.6086 2.34454V7.54677L18.0882 4.06728Z" fill="#0052B4"/>
<path d="M5.91174 19.9328C6.93374 20.7183 8.11167 21.3106 9.39128 21.6556V16.4534L5.91174 19.9328Z" fill="#0052B4"/>
<path d="M9.39124 2.34454C8.11163 2.68947 6.9337 3.28177 5.91174 4.06724L9.39124 7.54673V2.34454Z" fill="#0052B4"/>
<path d="M14.6086 21.6556C15.8883 21.3106 17.0662 20.7183 18.0881 19.9329L14.6086 16.4534V21.6556Z" fill="#0052B4"/>
<path d="M16.4532 14.6088L19.9327 18.0883C20.7182 17.0663 21.3105 15.8884 21.6554 14.6088H16.4532Z" fill="#0052B4"/>
<path d="M21.9154 10.6957H13.3044H13.3044V2.08465C12.8774 2.02906 12.4421 2 12 2C11.5579 2 11.1226 2.02906 10.6957 2.08465V10.6956V10.6956H2.08465C2.02906 11.1226 2 11.5579 2 12C2 12.4421 2.02906 12.8774 2.08465 13.3043H10.6956H10.6956V21.9154C11.1226 21.9709 11.5579 22 12 22C12.4421 22 12.8774 21.971 13.3043 21.9154V13.3044V13.3044H21.9154C21.9709 12.8774 22 12.4421 22 12C22 11.5579 21.9709 11.1226 21.9154 10.6957Z" fill="#D80027"/>
<path d="M14.6088 14.6088L19.0711 19.0711C19.2763 18.866 19.4721 18.6515 19.6589 18.4291L15.8385 14.6087H14.6088V14.6088Z" fill="#D80027"/>
<path d="M9.39121 14.6088H9.39114L4.92883 19.0711C5.13399 19.2763 5.34848 19.4721 5.57082 19.6589L9.39121 15.8384V14.6088Z" fill="#D80027"/>
<path d="M9.39122 9.39133V9.39125L4.92888 4.92886C4.72364 5.13402 4.52786 5.34851 4.34106 5.57086L8.16149 9.39129H9.39122V9.39133Z" fill="#D80027"/>
<path d="M14.6088 9.39135L19.0711 4.92893C18.866 4.7237 18.6515 4.52791 18.4292 4.34116L14.6088 8.16159V9.39135Z" fill="#D80027"/>
</svg>
