<svg width="24" height="24" viewBox="0 0 24 24" fill="none" xmlns="http://www.w3.org/2000/svg">
<path d="M12 17.1855C12.4854 17.1855 12.8789 16.792 12.8789 16.3066C12.8789 15.8212 12.4854 15.4277 12 15.4277C11.5146 15.4277 11.1211 15.8212 11.1211 16.3066C11.1211 16.792 11.5146 17.1855 12 17.1855Z" fill="black"/>
<path d="M12 3C7.02595 3 3 7.02528 3 12C3 16.974 7.02528 21 12 21C16.974 21 21 16.9747 21 12C21 7.02595 16.9747 3 12 3ZM12 19.5938C7.80315 19.5938 4.40625 16.1974 4.40625 12C4.40625 7.80315 7.80259 4.40625 12 4.40625C16.1968 4.40625 19.5938 7.80259 19.5938 12C19.5938 16.1968 16.1974 19.5938 12 19.5938Z" fill="black"/>
<path d="M12 7.51758C10.4492 7.51758 9.1875 8.77927 9.1875 10.3301C9.1875 10.7184 9.50229 11.0332 9.89062 11.0332C10.279 11.0332 10.5938 10.7184 10.5938 10.3301C10.5938 9.55467 11.2246 8.92383 12 8.92383C12.7754 8.92383 13.4062 9.55467 13.4062 10.3301C13.4062 11.1055 12.7754 11.7363 12 11.7363C11.6117 11.7363 11.2969 12.0511 11.2969 12.4395V14.1973C11.2969 14.5856 11.6117 14.9004 12 14.9004C12.3883 14.9004 12.7031 14.5856 12.7031 14.1973V13.0536C13.9148 12.7406 14.8125 11.6382 14.8125 10.3301C14.8125 8.77927 13.5508 7.51758 12 7.51758Z" fill="black"/>
</svg>
