<svg width="24" height="24" viewBox="0 0 24 24" fill="none" xmlns="http://www.w3.org/2000/svg">
<g clip-path="url(#clip0_380_2503)">
<path d="M6.00221 9.51887C6.00221 9.42127 6.00133 9.335 6.00221 9.2496C6.00841 8.34247 5.98009 7.43272 6.0261 6.52733C6.16147 3.89046 8.11679 1.67012 10.7445 1.13072C14.1217 0.437081 17.328 2.58074 17.9129 5.93391C17.9757 6.29641 17.9881 6.67024 17.9943 7.03972C18.0066 7.78738 17.9978 8.53505 17.9987 9.28272C17.9987 9.36027 18.0058 9.43783 18.0084 9.49883C18.2526 9.55198 18.4809 9.57899 18.6932 9.65045C19.5081 9.92581 19.9956 10.6482 19.9982 11.5771C20.0018 12.8912 19.9991 14.2053 19.9991 15.5194C19.9991 17.0008 20.0027 18.4813 19.9973 19.9627C19.9938 20.9482 19.4399 21.688 18.5322 21.9225C18.342 21.9713 18.1402 21.9948 17.9429 21.9948C13.9845 21.9991 10.0261 21.9991 6.0668 21.9974C4.8476 21.9965 4.00619 21.1765 4.00354 19.9731C3.99735 17.1707 4.00531 14.3682 4 11.5658C3.99823 10.5689 4.64057 9.60775 6.00221 9.51887ZM12 10.8451C10.0544 10.8451 8.10794 10.8451 6.16235 10.8451C5.54745 10.8451 5.33687 11.0499 5.33687 11.6538C5.33599 14.3979 5.33599 17.1419 5.33687 19.886C5.33687 20.4724 5.55718 20.6877 6.15174 20.6877C10.0509 20.6877 13.95 20.6877 17.8492 20.6877C18.4437 20.6877 18.664 20.4724 18.664 19.8868C18.6649 17.1358 18.6649 14.3839 18.664 11.6329C18.664 11.0578 18.4446 10.846 17.8598 10.846C15.9062 10.8451 13.9527 10.8451 12 10.8451ZM16.6423 9.52584C16.6494 9.46397 16.6591 9.42127 16.6591 9.37944C16.6583 8.48625 16.6786 7.59306 16.6494 6.70074C16.5565 3.86606 13.8368 1.80083 11.0232 2.41343C8.86706 2.88312 7.39659 4.63377 7.34705 6.81054C7.32758 7.65929 7.34174 8.50891 7.34174 9.35853C7.34174 9.41256 7.3559 9.46745 7.36474 9.52497C10.4614 9.52584 13.5404 9.52584 16.6423 9.52584Z" fill="black"/>
<path d="M11.3347 17.4199C11.3347 17.3763 11.3294 17.3319 11.3355 17.2892C11.3948 16.8683 11.2931 16.5964 10.856 16.3576C10.0659 15.9254 9.80314 14.9067 10.142 14.038C10.4632 13.2136 11.3603 12.6977 12.2486 12.8267C13.1997 12.9653 13.858 13.604 13.9827 14.512C14.104 15.3939 13.6492 16.1764 12.7981 16.5737C12.7352 16.6034 12.6733 16.7079 12.6715 16.7785C12.6591 17.1916 12.668 17.6064 12.6645 18.0194C12.6609 18.4586 12.4052 18.7218 11.9938 18.7174C11.5895 18.7131 11.3417 18.4551 11.3355 18.0299C11.3329 17.8268 11.3347 17.6229 11.3347 17.4199ZM11.9991 15.4296C12.4017 15.4296 12.6653 15.1699 12.6636 14.7752C12.6618 14.3935 12.399 14.1312 12.0115 14.1242C11.6151 14.1173 11.34 14.3822 11.3373 14.7734C11.3347 15.1682 11.5974 15.4287 11.9991 15.4296Z" fill="black"/>
<path d="M11.9991 15.4296C11.5974 15.4296 11.3338 15.1682 11.3373 14.7734C11.34 14.3822 11.616 14.1173 12.0115 14.1242C12.3981 14.1312 12.6609 14.3935 12.6636 14.7752C12.6653 15.1699 12.4017 15.4296 11.9991 15.4296Z" fill="white"/>
</g>
<defs>
<clipPath id="clip0_380_2503">
<rect width="16" height="21" fill="white" transform="translate(4 1)"/>
</clipPath>
</defs>
</svg>
