<svg width="24" height="24" viewBox="0 0 24 24" fill="none" xmlns="http://www.w3.org/2000/svg">
<path d="M12 2C6.47721 2 2 6.47721 2 12C2 17.5228 6.47721 22 12 22C17.5228 22 22 17.5228 22 12C21.9938 6.47982 17.5202 2.00618 12 2ZM20.6486 15.5033L17.8047 15.994C18.1302 14.8001 18.306 13.5705 18.328 12.3333H21.325C21.2874 13.4215 21.0584 14.4946 20.6486 15.5033ZM2.67497 12.3333H5.67204C5.69401 13.5705 5.86979 14.8001 6.19531 15.994L3.3514 15.5033C2.94157 14.4946 2.71257 13.4215 2.67497 12.3333ZM3.3514 8.49675L6.19531 8.00602C5.86979 9.19987 5.69401 10.4295 5.67204 11.6667H2.67497C2.71257 10.5785 2.94157 9.50537 3.3514 8.49675ZM12.3333 7.35205C13.5311 7.36735 14.7259 7.4764 15.9067 7.67839L17.0833 7.88135C17.4448 9.11149 17.6393 10.3846 17.6616 11.6667H12.3333V7.35205ZM16.0203 7.02132C14.8021 6.81315 13.5692 6.70068 12.3333 6.68538V2.68538C14.2443 2.86898 15.9043 4.61865 16.8451 7.16504L16.0203 7.02132ZM11.6667 6.68538C10.4308 6.70068 9.19824 6.81315 7.97998 7.02132L7.15495 7.16406C8.0957 4.61702 9.7557 2.8667 11.6667 2.68392V6.68538ZM8.09359 7.67839C9.27425 7.4764 10.4689 7.36735 11.6667 7.35205V11.6667H6.33838C6.36068 10.3846 6.55518 9.11149 6.91667 7.88135L8.09359 7.67839ZM6.33838 12.3333H11.6667V16.6479C10.4689 16.6327 9.27409 16.5236 8.09326 16.3216L6.91667 16.1187C6.55518 14.8885 6.36068 13.6154 6.33838 12.3333ZM7.97966 16.9787C9.19792 17.1872 10.4307 17.3001 11.6667 17.3164V21.3164C9.7557 21.1327 8.0957 19.383 7.15495 16.8366L7.97966 16.9787ZM12.3333 17.3164C13.5692 17.3001 14.8018 17.1872 16.02 16.9787L16.8451 16.8359C15.9043 19.383 14.2443 21.1333 12.3333 21.3161V17.3164ZM15.9064 16.3216C14.7257 16.5236 13.5311 16.6327 12.3333 16.6479V12.3333H17.6616C17.6393 13.6154 17.4448 14.8885 17.0833 16.1187L15.9064 16.3216ZM18.328 11.6667C18.306 10.4295 18.1302 9.19987 17.8047 8.00602L20.6486 8.49675C21.0584 9.50537 21.2874 10.5785 21.325 11.6667H18.328ZM20.3114 7.76204L17.5853 7.29167C17.0952 5.69287 16.1784 4.25798 14.9333 3.1416C17.2616 3.91862 19.1924 5.57731 20.3114 7.76204ZM9.06673 3.1416C7.82161 4.25798 6.90479 5.69287 6.41471 7.29167L3.68864 7.76204C4.80762 5.57731 6.73844 3.91862 9.06673 3.1416ZM3.68864 16.238L6.41471 16.7083C6.90479 18.3071 7.82161 19.742 9.06673 20.8584C6.73844 20.0814 4.80762 18.4227 3.68864 16.238ZM14.9333 20.8584C16.1784 19.742 17.0952 18.3071 17.5853 16.7083L20.3114 16.238C19.1924 18.4227 17.2616 20.0814 14.9333 20.8584Z" fill="black"/>
<path fill-rule="evenodd" clip-rule="evenodd" d="M12.0002 1.85001C17.6031 1.85628 22.1437 6.39694 22.15 11.9998C22.15 17.6055 17.6056 22.15 12 22.15C6.39437 22.15 1.85 17.6056 1.85 12C1.85 6.39438 6.39454 1.85001 12.0002 1.85001ZM20.6486 15.5033C21.0396 14.541 21.266 13.5201 21.3186 12.4833C21.3212 12.4334 21.3233 12.3834 21.325 12.3333H18.328C18.307 13.5154 18.1455 14.6907 17.8472 15.8344C17.8334 15.8877 17.8192 15.9409 17.8047 15.994L20.6486 15.5033ZM18.0094 15.8064L20.5406 15.3697C20.9053 14.448 21.1174 13.4731 21.1684 12.4833H18.4746C18.4437 13.605 18.2876 14.7196 18.0094 15.8064ZM16.0461 6.87355L16.6106 6.97192C15.6942 4.65787 14.1827 3.10345 12.4833 2.85462V6.5377C13.6774 6.55994 14.8688 6.67238 16.0461 6.87355ZM12.3333 6.68539V2.68539C12.3835 2.69021 12.4335 2.69611 12.4833 2.70308C14.2902 2.95572 15.8584 4.61016 16.7834 7.00205C16.8043 7.05601 16.8248 7.11034 16.8451 7.16505L16.0203 7.02133C14.8021 6.81316 13.5692 6.70069 12.3333 6.68539ZM7.95471 6.87347C9.13201 6.6723 10.3226 6.55994 11.5167 6.5377V2.85309C9.81728 3.10125 8.30559 4.65634 7.38926 6.9713L7.95471 6.87347ZM7.15495 7.16407C7.17514 7.10941 7.19566 7.05511 7.21651 7.00119C8.14156 4.60859 9.70974 2.95349 11.5167 2.70155C11.5665 2.6946 11.6165 2.68872 11.6667 2.68393V6.68539C10.4308 6.70069 9.19824 6.81316 7.97998 7.02133L7.15495 7.16407ZM6.34177 12.4833C6.34038 12.4334 6.33925 12.3834 6.33838 12.3333H11.6667V16.648C11.6167 16.6473 11.5667 16.6465 11.5167 16.6455C10.3692 16.6234 9.22479 16.5152 8.09326 16.3216L6.91667 16.1187C6.56928 14.9365 6.3761 13.7147 6.34177 12.4833ZM6.49183 12.4833C6.52525 13.6693 6.70757 14.8463 7.03457 15.9868L8.11855 16.1738C9.24172 16.3659 10.3776 16.4734 11.5167 16.4955V12.4833H6.49183ZM7.95419 17.1265L7.38921 17.0292C8.30551 19.3435 9.81719 20.8982 11.5167 21.1472V17.464C10.3225 17.4408 9.13151 17.328 7.95419 17.1265ZM11.6667 17.3164C10.4307 17.3001 9.19792 17.1872 7.97965 16.9787L7.15495 16.8366C7.17513 16.8912 7.19565 16.9455 7.2165 16.9994C8.14155 19.3914 9.70974 21.0459 11.5167 21.2987C11.5665 21.3057 11.6165 21.3116 11.6667 21.3164V17.3164ZM16.0453 17.1265C14.868 17.328 13.6774 17.4408 12.4833 17.464V21.1469C14.1827 20.8988 15.6944 19.3437 16.6107 17.0287L16.0453 17.1265ZM16.02 16.9787C14.8018 17.1872 13.5692 17.3001 12.3333 17.3164V21.3161C12.3835 21.3113 12.4335 21.3054 12.4833 21.2985C14.2903 21.0465 15.8584 19.3914 16.7835 16.9988C16.8043 16.9449 16.8249 16.8906 16.8451 16.8359L16.02 16.9787ZM22 12C22 17.5228 17.5228 22 12 22C6.47721 22 2 17.5228 2 12C2 6.47722 6.47721 2.00001 12 2.00001C17.5202 2.00619 21.9938 6.47982 22 12ZM2.67497 12.3333C2.67669 12.3834 2.67883 12.4334 2.68136 12.4833C2.734 13.5201 2.96041 14.541 3.3514 15.5033L6.19531 15.994C6.18083 15.9409 6.16664 15.8877 6.15275 15.8344C5.85445 14.6907 5.69303 13.5154 5.67204 12.3333H2.67497ZM2.83156 12.4833C2.88264 13.4731 3.09469 14.448 3.45944 15.3697L5.99059 15.8064C5.71235 14.7196 5.55629 13.605 5.5254 12.4833H2.83156ZM3.45944 8.63032C3.09469 9.552 2.88264 10.5269 2.83156 11.5167H5.5254C5.55629 10.3951 5.71235 9.28045 5.99059 8.19357L3.45944 8.63032ZM3.3514 8.49675C2.96041 9.459 2.734 10.4799 2.68136 11.5167C2.67883 11.5666 2.67669 11.6166 2.67497 11.6667H5.67204C5.69303 10.4846 5.85445 9.30931 6.15275 8.16559C6.16664 8.11233 6.18083 8.05915 6.19531 8.00603L3.3514 8.49675ZM12.3333 7.35206V11.6667H17.6616C17.6607 11.6167 17.6596 11.5667 17.6582 11.5167C17.6239 10.2853 17.4307 9.06351 17.0833 7.88135L15.9067 7.67839C14.7752 7.48484 13.6308 7.37662 12.4833 7.35446C12.4333 7.3535 12.3833 7.3527 12.3333 7.35206ZM12.4833 7.50449C13.6224 7.52663 14.7583 7.63412 15.8814 7.82624L16.9654 8.01323C17.2924 9.15375 17.4747 10.3307 17.5082 11.5167H12.4833V7.50449ZM8.11888 7.82624C8.11883 7.82625 8.11893 7.82624 8.11888 7.82624L7.03457 8.01323C6.70757 9.15375 6.52525 10.3307 6.49183 11.5167H11.5167V7.50449C10.3777 7.52663 9.24185 7.63414 8.11888 7.82624ZM11.5167 7.35446C10.3692 7.37662 9.22496 7.48484 8.09359 7.67839L6.91667 7.88135C6.56928 9.06351 6.3761 10.2853 6.34177 11.5167C6.34038 11.5667 6.33925 11.6167 6.33838 11.6667H11.6667V7.35206C11.6167 7.3527 11.5667 7.3535 11.5167 7.35446ZM15.8809 16.1738C14.758 16.3659 13.6223 16.4734 12.4833 16.4955ZM15.8809 16.1738L16.9654 15.9868C17.2924 14.8463 17.4747 13.6693 17.5082 12.4833H12.4833V16.4955M12.4833 16.6455C13.6308 16.6234 14.775 16.5152 15.9064 16.3216L17.0833 16.1187C17.4307 14.9365 17.6239 13.7147 17.6582 12.4833C17.6596 12.4334 17.6607 12.3834 17.6616 12.3333H12.3333V16.648C12.3833 16.6473 12.4333 16.6465 12.4833 16.6455ZM18.4746 11.5167H21.1684C21.1174 10.5269 20.9053 9.552 20.5406 8.63032L18.0094 8.19357C18.2876 9.28045 18.4437 10.3951 18.4746 11.5167ZM17.8472 8.16559C18.1455 9.30931 18.307 10.4846 18.328 11.6667H21.325C21.3233 11.6166 21.3212 11.5666 21.3186 11.5167C21.266 10.4799 21.0396 9.459 20.6486 8.49675L17.8047 8.00603C17.8192 8.05915 17.8334 8.11233 17.8472 8.16559ZM20.3114 7.76205C20.2826 7.70591 20.2533 7.65011 20.2235 7.59467C19.1527 5.60377 17.3995 4.06861 15.2898 3.26864C15.1721 3.22399 15.0532 3.18163 14.9333 3.14161C15.0266 3.2253 15.1181 3.31078 15.2077 3.39799C16.3134 4.47404 17.132 5.81274 17.5853 7.29167L20.3114 7.76205ZM20.0348 7.56212C19.0323 5.7541 17.4535 4.33857 15.5564 3.53704C16.5357 4.56359 17.2703 5.80195 17.7012 7.15945L20.0348 7.56212ZM9.06673 3.14161C8.94681 3.18163 8.82795 3.22399 8.71019 3.26864C6.60045 4.06861 4.84734 5.60377 3.7765 7.59467C3.74668 7.65011 3.71739 7.70591 3.68864 7.76205L6.41471 7.29167C6.86804 5.81274 7.68655 4.47405 8.79227 3.39799C8.88189 3.31078 8.97339 3.2253 9.06673 3.14161ZM8.44355 3.53704C7.46425 4.56358 6.72968 5.80195 6.29883 7.15945L3.96519 7.56212C4.96768 5.7541 6.54651 4.33856 8.44355 3.53704ZM3.68864 16.238C3.71739 16.2941 3.74668 16.3499 3.7765 16.4053C4.84734 18.3962 6.60045 19.9314 8.71019 20.7314C8.82794 20.776 8.94681 20.8184 9.06673 20.8584C8.97339 20.7747 8.88189 20.6892 8.79228 20.602C7.68655 19.526 6.86804 18.1873 6.41471 16.7083L3.68864 16.238ZM3.96519 16.4379C4.96768 18.2459 6.54651 19.6614 8.44355 20.463C7.46425 19.4364 6.72968 18.1981 6.29883 16.8406L3.96519 16.4379ZM15.2077 20.602C16.3134 19.526 17.132 18.1873 17.5853 16.7083L20.3114 16.238C20.2826 16.2941 20.2533 16.3499 20.2235 16.4053C19.1527 18.3962 17.3996 19.9314 15.2898 20.7314C15.1721 20.776 15.0532 20.8184 14.9333 20.8584C15.0266 20.7747 15.1181 20.6892 15.2077 20.602ZM15.5564 20.463C17.4535 19.6614 19.0323 18.2459 20.0348 16.4379L17.7012 16.8406C17.2703 18.1981 16.5357 19.4364 15.5564 20.463Z" fill="black"/>
</svg>
