<svg width="24" height="24" viewBox="0 0 24 24" fill="none" xmlns="http://www.w3.org/2000/svg">
<path d="M11.9701 19.5H5.24251C4.82988 19.5 4.49502 19.164 4.49502 18.75V5.25002C4.49502 4.83602 4.82992 4.50004 5.24251 4.50004H11.9701C12.3835 4.50004 12.7176 4.1648 12.7176 3.75005C12.7176 3.33531 12.3835 3 11.9701 3H5.24251C4.00614 3 3 4.00953 3 5.25002V18.75C3 19.9905 4.00614 21 5.24251 21H11.9701C12.3835 21 12.7176 20.6648 12.7176 20.25C12.7176 19.8353 12.3835 19.5 11.9701 19.5Z" fill="black"/>
<path d="M20.7774 11.4659L16.2326 6.96594C15.9395 6.67493 15.4656 6.6787 15.1756 6.97345C14.8855 7.26819 14.8885 7.74294 15.1831 8.03394L18.431 11.2499H9.72775C9.31438 11.2499 8.98026 11.5852 8.98026 11.9999C8.98026 12.4147 9.31438 12.7499 9.72775 12.7499H18.431L15.1831 15.9659C14.8886 16.2569 14.8863 16.7317 15.1756 17.0264C15.3221 17.1749 15.5149 17.2499 15.7078 17.2499C15.8977 17.2499 16.0875 17.1779 16.2326 17.0339L20.7774 12.5339C20.9194 12.3929 21.0002 12.2009 21.0002 11.9999C21.0002 11.799 20.9202 11.6077 20.7774 11.4659Z" fill="black"/>
</svg>
