<svg width="132" height="22" viewBox="0 0 132 22" fill="none" xmlns="http://www.w3.org/2000/svg">
<g clip-path="url(#clip0_911_5524)">
<path d="M23.6572 16.7888C23.6358 16.7857 23.6144 16.7796 23.593 16.7765V16.7734C23.6144 16.7796 23.6358 16.7857 23.6572 16.7888Z" fill="url(#paint0_linear_911_5524)"/>
<path d="M27.5777 12.7447C27.5777 14.0499 27.2624 15.2355 26.6901 16.2894C25.9281 17.6925 24.7039 18.8598 23.1553 19.7666C21.7016 20.6152 19.9602 21.2372 18.0413 21.6048C16.6794 21.8652 15.2318 22 13.7292 22C12.1102 22 10.5616 21.8438 9.1293 21.5405C4.73757 20.6183 1.42311 18.3206 0.428462 14.9322C0.226473 14.2459 0.122418 13.5168 0.122418 12.7447C0.122418 10.7656 0.817138 8.76508 2.02907 6.98204C0.820199 6.35399 0 5.12547 0 3.71007C0 1.66049 1.71997 0 3.84086 0C5.46595 0 6.85539 0.974238 7.41545 2.35288C8.04285 2.04345 8.70084 1.77691 9.38026 1.55939C10.7422 1.12129 12.202 0.876201 13.7261 0.876201C14.4392 0.876201 15.1431 0.931347 15.8317 1.03245C16.5784 1.14274 17.3099 1.31124 18.0138 1.53182C18.7177 1.74934 19.3971 2.01894 20.049 2.33143C20.6151 0.965047 21.9985 0 23.6144 0C25.7353 0 27.4552 1.66049 27.4552 3.71007C27.4552 4.47904 27.2135 5.19287 26.7972 5.78415C26.4759 6.2437 26.0505 6.62665 25.5547 6.91157C26.2525 7.89194 26.7911 8.94277 27.1339 10.0181C27.4246 10.9127 27.5777 11.8318 27.5777 12.7447Z" fill="#FF9600"/>
<path d="M26.6901 16.2894C26.7085 16.2924 26.7299 16.2986 26.7513 16.3016C26.7299 16.3016 26.7085 16.2955 26.6901 16.2894C25.9281 17.6956 24.7039 18.8628 23.1553 19.7697C21.7016 20.6183 19.9602 21.2402 18.0413 21.6079C16.6794 21.8683 15.2318 22.0031 13.7292 22.0031C12.1102 22.0031 10.5616 21.8468 9.1293 21.5435C4.73757 20.6183 1.42311 18.3206 0.428462 14.9322C0.226473 14.2459 0.122418 13.5168 0.122418 12.7447C0.122418 10.7656 0.817138 8.76507 2.02907 6.98204C0.820199 6.35399 0 5.12547 0 3.71007C0 1.66049 1.71997 0 3.84086 0C5.46595 0 6.85539 0.974237 7.41545 2.35288C8.04285 2.04345 8.70084 1.77691 9.38026 1.55939L9.34966 1.42153C9.35884 1.46748 9.37108 1.51344 9.38332 1.55939C10.7452 1.12129 12.205 0.876201 13.7292 0.876201C14.4422 0.876201 15.1461 0.931347 15.8347 1.03245C16.5815 1.14274 17.3129 1.31124 18.0168 1.53182C18.7207 1.74934 19.4002 2.01894 20.052 2.33143C20.6151 0.965047 21.9985 0 23.6144 0C25.7353 0 27.4552 1.66049 27.4552 3.71007C27.4552 4.47904 27.2135 5.19287 26.7972 5.78415C26.4759 6.2437 26.0505 6.62665 25.5547 6.91157C26.2525 7.89194 26.7911 8.94277 27.1339 10.0181C27.4246 10.9157 27.5777 11.8348 27.5777 12.7447C27.5777 14.0529 27.2624 15.2385 26.6901 16.2894Z" fill="url(#paint1_linear_911_5524)"/>
<path d="M27.5777 12.7447C27.5777 14.0499 27.2624 15.2355 26.6901 16.2894C26.531 16.2557 26.3718 16.2189 26.2158 16.1791C26.1546 16.1638 26.0903 16.1484 26.0291 16.1331C25.8761 16.0964 25.7261 16.0565 25.5731 16.0167C25.5486 16.0136 25.5272 16.0075 25.5057 15.9983C25.4017 15.9708 25.2976 15.9432 25.1966 15.9156C24.9732 15.8543 24.7498 15.79 24.5295 15.7226C24.3734 15.6766 24.2203 15.6276 24.0643 15.5786C23.8776 15.5204 23.694 15.4591 23.5103 15.3948C23.3267 15.3335 23.1461 15.2692 22.9625 15.2018C22.5555 15.0547 22.1607 14.8985 21.7689 14.733C21.6649 14.6902 21.5639 14.6473 21.4598 14.6013C21.4568 14.6013 21.4537 14.5982 21.4506 14.5982C21.3497 14.5554 21.2517 14.5125 21.1538 14.4665C20.6611 14.2459 20.1775 14.01 19.7093 13.7649C19.6144 13.7159 19.5195 13.6638 19.4246 13.6148C19.2349 13.5137 19.0482 13.4096 18.8646 13.3054C16.9763 12.2239 15.2992 10.9403 13.8883 9.49422C13.5302 9.12658 13.1875 8.74976 12.8661 8.36374C12.8141 8.30247 12.7651 8.24119 12.7131 8.17992C12.5019 7.92257 12.2999 7.6591 12.1071 7.39256C12.0581 7.32823 12.0122 7.26083 11.9633 7.19649C11.8684 7.06169 11.7766 6.92689 11.6878 6.79209C11.645 6.73082 11.6021 6.66648 11.5624 6.60214C11.4614 6.4459 11.3604 6.28659 11.2655 6.12728C11.2349 6.0752 11.2043 6.02312 11.1737 5.97104C11.1063 5.85768 11.0421 5.74126 10.9747 5.62791C10.9441 5.5697 10.9135 5.51455 10.8799 5.45634C10.8278 5.35831 10.7758 5.26027 10.7238 5.16223C10.7146 5.14385 10.7054 5.12547 10.6962 5.10709C10.635 4.98761 10.5769 4.87119 10.5187 4.75171C10.5065 4.7272 10.4943 4.70269 10.482 4.68124C10.4514 4.61691 10.4208 4.54951 10.3902 4.48211C10.3443 4.38713 10.3015 4.2891 10.2617 4.19106C10.2219 4.10528 10.1852 4.01643 10.1484 3.93065C10.1454 3.92146 10.1423 3.91227 10.1362 3.90001C10.0872 3.7836 10.0413 3.67024 9.99847 3.55382C9.91583 3.33937 9.83626 3.12185 9.76587 2.90127C9.74445 2.83999 9.72303 2.77566 9.70466 2.71132C9.66794 2.60103 9.63427 2.49074 9.60061 2.37738C9.57613 2.29773 9.5547 2.21808 9.53328 2.13842C9.49961 2.022 9.47207 1.90252 9.44147 1.7861C9.43229 1.74015 9.42004 1.69726 9.4078 1.6513C9.40168 1.62067 9.3925 1.59003 9.38638 1.55633L9.35577 1.41847C9.36496 1.46442 9.3772 1.51037 9.38944 1.55633C10.7513 1.11823 12.2112 0.873137 13.7353 0.873137C14.4484 0.873137 15.1523 0.928283 15.8409 1.02938C16.5876 1.13967 17.319 1.30817 18.023 1.52876C18.7269 1.74627 19.4063 2.01588 20.0581 2.32837C20.6151 0.965047 21.9985 0 23.6144 0C25.7353 0 27.4552 1.66049 27.4552 3.71007C27.4552 4.47904 27.2135 5.19287 26.7972 5.78415C26.4759 6.2437 26.0505 6.62665 25.5547 6.91157C26.2525 7.89194 26.7911 8.94277 27.1339 10.0181C27.4246 10.9127 27.5777 11.8318 27.5777 12.7447Z" fill="url(#paint2_linear_911_5524)"/>
<path d="M26.6901 16.2894C26.7085 16.2924 26.7299 16.2986 26.7513 16.3016C26.7299 16.3016 26.7085 16.2955 26.6901 16.2894C25.9281 17.6956 24.7039 18.8628 23.1553 19.7697C21.7016 20.6183 19.9602 21.2402 18.0413 21.6078C17.8485 20.6888 17.7444 19.7329 17.7444 18.7556V18.7158C17.7506 16.7949 18.1454 14.9659 18.8584 13.3054L27.1339 10.0181C27.4246 10.9157 27.5777 11.8348 27.5777 12.7447C27.5777 14.0529 27.2624 15.2385 26.6901 16.2894Z" fill="url(#paint3_linear_911_5524)"/>
<path d="M27.1339 10.0181C27.4246 10.9157 27.5776 11.8348 27.5776 12.7447C27.5776 14.0499 27.2624 15.2355 26.6901 16.2894C26.531 16.2557 26.3718 16.2189 26.2158 16.1791C26.1545 16.1638 26.0903 16.1484 26.0291 16.1331C25.876 16.0964 25.7261 16.0565 25.5731 16.0167C25.5486 16.0136 25.5271 16.0075 25.5057 15.9983C25.4017 15.9708 25.2976 15.9432 25.1966 15.9156C24.9732 15.8543 24.7498 15.79 24.5294 15.7226C24.3734 15.6766 24.2203 15.6276 24.0643 15.5786C23.8776 15.5204 23.6939 15.4591 23.5103 15.3948C23.3267 15.3335 23.1461 15.2692 22.9625 15.2018C22.5555 15.0547 22.1607 14.8985 21.7689 14.733C21.6649 14.6902 21.5639 14.6473 21.4598 14.6013C21.4568 14.6013 21.4537 14.5982 21.4506 14.5982C21.3496 14.5554 21.2517 14.5125 21.1538 14.4665C20.661 14.2459 20.1775 14.01 19.7092 13.7649C19.6144 13.7159 19.5195 13.6638 19.4246 13.6148C19.2349 13.5137 19.0482 13.4096 18.8646 13.3054C20.355 9.81896 23.2379 7.07701 26.8034 5.78415C26.482 6.2437 26.0566 6.62665 25.5608 6.91157C26.2525 7.88887 26.7911 8.9397 27.1339 10.0181Z" fill="url(#paint4_linear_911_5524)"/>
<path d="M15.8317 1.03245L13.8791 9.49422C10.736 12.8428 6.19434 14.9475 1.14461 14.9475C0.905891 14.9475 0.667177 14.9444 0.431523 14.9322C0.229533 14.2459 0.125478 13.5168 0.125478 12.7447C0.125478 10.7656 0.820199 8.76508 2.03213 6.98204C0.820199 6.35399 0 5.12547 0 3.71007C0 1.66049 1.71997 0 3.84086 0C5.46595 0 6.85539 0.974238 7.41545 2.35288C8.04285 2.04345 8.70084 1.77691 9.38026 1.55939L9.34966 1.42153C9.35884 1.46748 9.37108 1.51344 9.38332 1.55939C10.7452 1.12129 12.205 0.876201 13.7292 0.876201C14.4422 0.876201 15.1461 0.928283 15.8317 1.03245Z" fill="url(#paint5_linear_911_5524)"/>
<path d="M18.0138 1.53182C17.4047 4.5587 15.9418 7.29453 13.8791 9.49422C13.521 9.12659 13.1783 8.74976 12.8569 8.36374C12.8049 8.30247 12.7559 8.24119 12.7039 8.17992C12.4927 7.92257 12.2907 7.6591 12.0979 7.39256C12.049 7.32823 12.0031 7.26083 11.9541 7.19649C11.8592 7.06169 11.7674 6.92689 11.6787 6.79209C11.6358 6.73082 11.593 6.66648 11.5532 6.60215C11.4522 6.4459 11.3512 6.28659 11.2563 6.12728C11.2257 6.0752 11.1951 6.02312 11.1645 5.97104C11.0972 5.85768 11.0329 5.74126 10.9656 5.62791C10.935 5.5697 10.9044 5.51455 10.8707 5.45634C10.8187 5.35831 10.7666 5.26027 10.7146 5.16223C10.7054 5.14385 10.6962 5.12547 10.6871 5.10709C10.6259 4.98761 10.5677 4.87119 10.5096 4.75171C10.4973 4.7272 10.4851 4.70269 10.4728 4.68124C10.4422 4.61691 10.4116 4.54951 10.381 4.48211C10.3351 4.38713 10.2923 4.2891 10.2525 4.19106C10.2127 4.10528 10.176 4.01643 10.1392 3.93065C10.1362 3.92146 10.1331 3.91227 10.127 3.90001C10.078 3.7836 10.0321 3.67024 9.98929 3.55382C9.90665 3.33937 9.82708 3.12185 9.75669 2.90127C9.73527 2.84 9.71385 2.77566 9.69548 2.71132C9.65876 2.60103 9.62509 2.49074 9.59143 2.37739C9.56694 2.29773 9.54552 2.21808 9.5241 2.13842C9.49043 2.022 9.46289 1.90252 9.43229 1.7861C9.4231 1.74015 9.41086 1.69726 9.39862 1.6513C9.3925 1.62067 9.38332 1.59003 9.3772 1.55633C10.7391 1.11823 12.1989 0.873138 13.723 0.873138C14.4361 0.873138 15.14 0.928284 15.8286 1.02938C16.5815 1.14274 17.3099 1.30818 18.0138 1.53182Z" fill="url(#paint6_linear_911_5524)"/>
<path d="M17.7444 18.7127C19.6419 18.7127 21.4629 19.0834 23.1522 19.7697C21.6985 20.6183 19.9571 21.2402 18.0382 21.6078C16.6763 21.8683 15.2287 22.0031 13.7261 22.0031C12.1071 22.0031 10.5585 21.8468 9.12622 21.5435C11.6205 19.7513 14.5769 18.7127 17.7444 18.7127Z" fill="url(#paint7_linear_911_5524)"/>
<path d="M17.7445 18.7127C19.6419 18.7127 21.4629 19.0834 23.1523 19.7697C21.6985 20.6183 19.9572 21.2402 18.0383 21.6078C17.8454 20.6888 17.7414 19.7329 17.7414 18.7556V18.7127H17.7445Z" fill="#168C80"/>
<path d="M37.6496 17.4903C36.4958 16.3415 35.9204 14.7055 35.9204 12.5732V4.44228H39.2777V12.4476C39.2777 15.0486 40.355 16.3476 42.5095 16.3476C43.5593 16.3476 44.3611 16.032 44.912 15.404C45.4629 14.7759 45.7414 13.7894 45.7414 12.4476V4.44228H49.0558V12.5732C49.0558 14.7024 48.4805 16.3415 47.3267 17.4903C46.1729 18.6392 44.56 19.2121 42.4881 19.2121C40.4162 19.2121 38.8033 18.6392 37.6496 17.4903Z" fill="#232631"/>
<path d="M62.2647 8.88149C63.1155 9.71174 63.5378 10.9433 63.5378 12.5732V18.9609H60.306V13.0726C60.306 12.1872 60.1132 11.5285 59.7245 11.0904C59.3389 10.6553 58.7788 10.4378 58.0474 10.4378C57.2333 10.4378 56.5845 10.689 56.1009 11.1945C55.6174 11.7 55.3756 12.4506 55.3756 13.4463V18.9639H52.1438V7.80309H55.2318V9.11126C55.6602 8.64253 56.1928 8.27796 56.8263 8.02367C57.4628 7.76633 58.1606 7.64072 58.9196 7.64072C60.2999 7.63765 61.4139 8.05125 62.2647 8.88149Z" fill="#232631"/>
<path d="M66.6259 5.729C66.2525 5.38281 66.0658 4.9539 66.0658 4.44227C66.0658 3.93064 66.2525 3.50173 66.6259 3.15554C66.9992 2.80935 67.4828 2.63779 68.0765 2.63779C68.6702 2.63779 69.1538 2.80322 69.5272 3.1341C69.9005 3.46497 70.0872 3.88162 70.0872 4.37793C70.0872 4.91714 69.9005 5.36443 69.5272 5.71674C69.1538 6.06906 68.6702 6.24675 68.0765 6.24675C67.4828 6.24675 66.9992 6.07519 66.6259 5.729ZM66.4606 7.80308H69.6924V18.9609H66.4606V7.80308Z" fill="#232631"/>
<path d="M77.4843 14.586L75.9296 16.1209V18.9639H72.6978V3.5722H75.9296V12.2852L80.6549 7.80616H84.508L79.8653 12.5364L84.9212 18.967H81.0038L77.4843 14.586Z" fill="#232631"/>
<path d="M97.3955 7.80309V18.9609H94.329V17.6343C93.9005 18.1184 93.3894 18.4891 92.7957 18.7433C92.202 18.9976 91.5593 19.1263 90.8676 19.1263C89.4047 19.1263 88.2417 18.7035 87.3879 17.861C86.5309 17.0185 86.1025 15.7655 86.1025 14.1081V7.80309H89.3343V13.6301C89.3343 15.4285 90.0872 16.3261 91.5929 16.3261C92.3672 16.3261 92.9885 16.0749 93.4567 15.5694C93.925 15.0639 94.1606 14.3133 94.1606 13.3176V7.80309H97.3955Z" fill="#232631"/>
<path d="M118.001 8.87229C118.825 9.69641 119.235 10.928 119.235 12.5762V18.9639H116.003V13.0725C116.003 12.1872 115.819 11.5285 115.455 11.0904C115.088 10.6553 114.568 10.4378 113.891 10.4378C113.132 10.4378 112.529 10.6829 112.089 11.1731C111.648 11.6633 111.425 12.3924 111.425 13.3605V18.9609H108.193V13.0725C108.193 11.3171 107.489 10.4378 106.078 10.4378C105.331 10.4378 104.738 10.6829 104.297 11.1731C103.856 11.6633 103.633 12.3924 103.633 13.3605V18.9609H100.401V7.80308H103.489V9.08981C103.902 8.62107 104.41 8.25957 105.013 8.01141C105.613 7.76326 106.274 7.63765 106.99 7.63765C107.777 7.63765 108.49 7.79389 109.123 8.10332C109.76 8.41581 110.271 8.86617 110.656 9.46051C111.112 8.87842 111.688 8.43113 112.386 8.11251C113.083 7.79389 113.845 7.63458 114.675 7.63458C116.07 7.63765 117.181 8.04817 118.001 8.87229Z" fill="#232631"/>
<path d="M130.611 8.87229C131.535 9.69641 132 10.9372 132 12.5946V18.9639H128.976V17.573C128.367 18.6116 127.235 19.1294 125.579 19.1294C124.722 19.1294 123.982 18.9854 123.351 18.6943C122.724 18.4033 122.243 18.0019 121.91 17.4903C121.579 16.9787 121.414 16.3997 121.414 15.7471C121.414 14.7116 121.803 13.8936 122.586 13.2993C123.366 12.7049 124.572 12.4077 126.2 12.4077H128.771C128.771 11.7031 128.557 11.1608 128.129 10.7779C127.7 10.398 127.057 10.208 126.2 10.208C125.607 10.208 125.022 10.2999 124.45 10.4868C123.878 10.6737 123.388 10.9249 122.99 11.2436L121.83 8.98258C122.439 8.55367 123.168 8.2228 124.015 7.9869C124.866 7.751 125.738 7.63458 126.635 7.63458C128.358 7.63765 129.686 8.04817 130.611 8.87229ZM127.856 16.5682C128.285 16.3108 128.588 15.937 128.768 15.4377V14.298H126.552C125.227 14.298 124.563 14.733 124.563 15.6062C124.563 16.0198 124.725 16.3506 125.05 16.5927C125.374 16.8347 125.821 16.9572 126.387 16.9572C126.935 16.9511 127.428 16.8224 127.856 16.5682Z" fill="#232631"/>
</g>
<defs>
<linearGradient id="paint0_linear_911_5524" x1="23.5931" y1="16.7827" x2="23.6563" y2="16.7827" gradientUnits="userSpaceOnUse">
<stop stop-color="#FF9F22"/>
<stop offset="0.2473" stop-color="#FB802E"/>
<stop offset="0.56" stop-color="#F7603A"/>
<stop offset="0.8222" stop-color="#F54C42"/>
<stop offset="1" stop-color="#F44545"/>
</linearGradient>
<linearGradient id="paint1_linear_911_5524" x1="0" y1="11.0007" x2="27.5783" y2="11.0007" gradientUnits="userSpaceOnUse">
<stop stop-color="#72D1FB"/>
<stop offset="0.0165" stop-color="#6FD0FB"/>
<stop offset="0.3295" stop-color="#43BFF6"/>
<stop offset="0.6089" stop-color="#22B3F3"/>
<stop offset="0.8419" stop-color="#0EACF1"/>
<stop offset="1" stop-color="#07A9F0"/>
</linearGradient>
<linearGradient id="paint2_linear_911_5524" x1="9.34987" y1="8.1449" x2="27.5783" y2="8.1449" gradientUnits="userSpaceOnUse">
<stop stop-color="#FF9F22"/>
<stop offset="0.2473" stop-color="#FB802E"/>
<stop offset="0.56" stop-color="#F7603A"/>
<stop offset="0.8222" stop-color="#F54C42"/>
<stop offset="1" stop-color="#F44545"/>
</linearGradient>
<linearGradient id="paint3_linear_911_5524" x1="17.7451" y1="15.8112" x2="27.5783" y2="15.8112" gradientUnits="userSpaceOnUse">
<stop stop-color="#20B7A1"/>
<stop offset="1" stop-color="#199A8E"/>
</linearGradient>
<linearGradient id="paint4_linear_911_5524" x1="18.8579" y1="11.0365" x2="27.5783" y2="11.0365" gradientUnits="userSpaceOnUse">
<stop stop-color="#FFB655"/>
<stop offset="0.1991" stop-color="#FFB14B"/>
<stop offset="0.5431" stop-color="#FFA52F"/>
<stop offset="0.9883" stop-color="#FF9201"/>
<stop offset="1" stop-color="#FF9100"/>
</linearGradient>
<linearGradient id="paint5_linear_911_5524" x1="-2.02326" y1="-1.12405" x2="13.6645" y2="12.9149" gradientUnits="userSpaceOnUse">
<stop stop-color="#717ED6"/>
<stop offset="0.3616" stop-color="#5867CE"/>
<stop offset="0.7415" stop-color="#4455C8"/>
<stop offset="1" stop-color="#3D4EC6"/>
</linearGradient>
<linearGradient id="paint6_linear_911_5524" x1="13.5971" y1="13.1682" x2="13.7173" y2="-0.527035" gradientUnits="userSpaceOnUse">
<stop stop-color="#FB5858"/>
<stop offset="0.2363" stop-color="#EF4B4B"/>
<stop offset="0.6909" stop-color="#DD3737"/>
<stop offset="1" stop-color="#D63030"/>
</linearGradient>
<linearGradient id="paint7_linear_911_5524" x1="9.1276" y1="20.3574" x2="23.1539" y2="20.3574" gradientUnits="userSpaceOnUse">
<stop stop-color="#7AF4AB"/>
<stop offset="0.0876" stop-color="#6DF0A6"/>
<stop offset="0.3458" stop-color="#4BE599"/>
<stop offset="0.5908" stop-color="#32DD90"/>
<stop offset="0.8153" stop-color="#23D88A"/>
<stop offset="1" stop-color="#1ED688"/>
</linearGradient>
<clipPath id="clip0_911_5524">
<rect width="132" height="22" fill="white"/>
</clipPath>
</defs>
</svg>
