<svg width="24" height="24" viewBox="0 0 24 24" fill="none" xmlns="http://www.w3.org/2000/svg">
<g clip-path="url(#clip0_390_2756)">
<path d="M2 11.9887C2.01172 6.47571 6.49291 1.99922 12.0004 2C17.5165 2.00078 22.0117 6.5015 21.9992 12.0098C21.9867 17.5243 17.5055 22.0008 11.9988 21.9992C6.48431 21.9984 1.98828 17.4977 2 11.9887Z" fill="#D70228"/>
<path d="M7.52311 10.5465C7.52077 10.5606 7.51764 10.5747 7.5153 10.5887C7.55047 10.6169 7.58486 10.6466 7.62082 10.6732C8.4478 11.2742 9.27244 11.8777 10.1033 12.4733C10.226 12.5608 10.2487 12.6398 10.2003 12.7797C10.0306 13.2713 9.87431 13.7677 9.71329 14.2633C9.54133 14.7924 9.37093 15.3224 9.18646 15.8914C9.27088 15.8352 9.31934 15.8054 9.36546 15.7718C10.1768 15.1825 10.9897 14.5962 11.7956 13.9998C11.9425 13.8912 12.041 13.8763 12.1966 13.992C12.99 14.583 13.7943 15.1598 14.5947 15.7421C14.6502 15.782 14.7072 15.8195 14.7995 15.8821C14.769 15.7726 14.7526 15.7046 14.7315 15.6382C14.4219 14.6853 14.1147 13.7317 13.799 12.7813C13.7528 12.6413 13.7732 12.5632 13.8959 12.4756C14.7166 11.8878 15.5311 11.2922 16.3471 10.6989C16.3964 10.663 16.4417 10.6216 16.5316 10.5481C16.4089 10.5481 16.3393 10.5481 16.2697 10.5481C15.2864 10.5481 14.3031 10.5426 13.3198 10.5528C13.1267 10.5551 13.0533 10.4887 12.997 10.3113C12.6976 9.36233 12.385 8.41732 12.0762 7.47075C12.0574 7.41369 12.0324 7.35819 11.9949 7.26361C11.959 7.36601 11.9363 7.42541 11.9168 7.4856C11.6064 8.43843 11.2922 9.38891 10.9905 10.3441C10.9397 10.5059 10.8631 10.5512 10.7013 10.5497C9.71173 10.5426 8.72138 10.5465 7.73181 10.5465C7.66303 10.5465 7.59268 10.5465 7.52311 10.5465Z" fill="#D70228"/>
<path d="M7.52312 10.5465C7.59268 10.5465 7.66225 10.5465 7.7326 10.5465C8.72216 10.5465 9.71251 10.5434 10.7021 10.5497C10.8639 10.5504 10.9405 10.5051 10.9913 10.3441C11.293 9.38891 11.6072 8.43764 11.9175 7.4856C11.9371 7.42541 11.9597 7.36601 11.9957 7.26361C12.0332 7.35741 12.0582 7.41291 12.077 7.47075C12.3857 8.41654 12.6984 9.36155 12.9978 10.3113C13.0533 10.4887 13.1275 10.5551 13.3206 10.5528C14.3039 10.5418 15.2872 10.5481 16.2705 10.5481C16.3401 10.5481 16.4089 10.5481 16.5324 10.5481C16.4433 10.6216 16.3979 10.663 16.3479 10.6989C15.5319 11.293 14.7174 11.8886 13.8967 12.4756C13.7739 12.564 13.7528 12.6413 13.7997 12.7813C14.1155 13.7317 14.4227 14.6853 14.7322 15.6382C14.7541 15.7046 14.7698 15.7726 14.8002 15.8821C14.708 15.8195 14.651 15.7828 14.5955 15.7421C13.7951 15.1606 12.9907 14.583 12.1974 13.992C12.0418 13.8763 11.9425 13.8912 11.7964 13.9998C10.9905 14.5962 10.1768 15.1825 9.36624 15.7718C9.32012 15.8054 9.27166 15.8352 9.18724 15.8914C9.37171 15.3216 9.54211 14.7924 9.71407 14.2633C9.87509 13.7685 10.0314 13.2721 10.201 12.7797C10.2487 12.6398 10.2261 12.5616 10.1041 12.4733C9.27323 11.8777 8.44859 11.2742 7.6216 10.6732C7.58487 10.6466 7.55126 10.6169 7.51608 10.5887C7.51765 10.5747 7.52077 10.5606 7.52312 10.5465Z" fill="#FFDA43"/>
</g>
<defs>
<clipPath id="clip0_390_2756">
<rect width="19.9992" height="20" fill="white" transform="translate(2 2)"/>
</clipPath>
</defs>
</svg>
