<svg width="24" height="24" viewBox="0 0 24 24" fill="none" xmlns="http://www.w3.org/2000/svg">
<path d="M15.8571 6.21429H4.92857C3.86345 6.21429 3 7.07775 3 8.14287V19.0714C3 20.1366 3.86345 21 4.92857 21H15.8571C16.9223 21 17.7857 20.1366 17.7857 19.0714V8.14287C17.7857 7.07775 16.9223 6.21429 15.8571 6.21429ZM16.5 19.0715C16.5 19.4265 16.2122 19.7143 15.8571 19.7143H4.92857C4.57352 19.7143 4.2857 19.4265 4.2857 19.0715V8.14287C4.2857 7.78781 4.57352 7.5 4.92857 7.5H15.8571C16.2122 7.5 16.5 7.78781 16.5 8.14287V19.0715Z" fill="#232631"/>
<path d="M19.0715 3H7.50011C6.43498 3 5.57153 3.86345 5.57153 4.92857C5.57153 5.28363 5.85935 5.57144 6.2144 5.57144C6.56946 5.57144 6.85724 5.28363 6.85724 4.92857C6.85724 4.57352 7.14505 4.2857 7.50011 4.2857H19.0715C19.4266 4.2857 19.7144 4.57352 19.7144 4.92857V16.5C19.7144 16.8551 19.4266 17.1429 19.0715 17.1429C18.7165 17.1429 18.4287 17.4307 18.4287 17.7858C18.4287 18.1408 18.7165 18.4286 19.0715 18.4286C20.1367 18.4286 21.0001 17.5652 21.0001 16.5V4.92857C21.0001 3.86345 20.1367 3 19.0715 3Z" fill="#232631"/>
</svg>
