<svg width="24" height="24" viewBox="0 0 24 24" fill="none" xmlns="http://www.w3.org/2000/svg">
<path d="M19.8704 11.6934C17.4538 8.7216 14.8445 7.21283 12.1078 7.21283C11.0235 7.21283 9.92626 7.45449 8.84203 7.92803C7.98967 8.30359 7.14385 8.82284 6.33068 9.47272C4.9558 10.5733 4.1459 11.6706 4.11324 11.7163C3.95648 11.9318 3.96302 12.2257 4.12957 12.4348C6.54295 15.4098 9.15554 16.9153 11.8922 16.9153C12.9765 16.9153 14.0738 16.6737 15.158 16.2002C16.0103 15.8246 16.8562 15.3053 17.6693 14.6555C19.0442 13.5549 19.8541 12.4576 19.8868 12.4119C20.0435 12.1964 20.037 11.9024 19.8704 11.6934ZM16.9084 13.7574C15.7719 14.662 13.9823 15.7397 11.8922 15.7397C9.63561 15.7397 7.4345 14.502 5.34442 12.0592C5.67426 11.6706 6.27843 11.0207 7.08833 10.3741C8.22481 9.46946 10.0144 8.39176 12.1045 8.39176C14.3611 8.39176 16.5622 9.62948 18.6523 12.0723C18.3225 12.4609 17.7183 13.114 16.9084 13.7574Z" fill="black"/>
<path d="M14.1654 11.478C13.8421 11.478 13.5775 11.7425 13.5775 12.0658C13.5775 12.9377 12.8689 13.6464 11.9969 13.6464C11.125 13.6464 10.4163 12.9377 10.4163 12.0658C10.4163 11.1938 11.125 10.4852 11.9969 10.4852C12.3202 10.4852 12.5848 10.2207 12.5848 9.89734C12.5848 9.57403 12.3202 9.30951 11.9969 9.30951C10.4751 9.30951 9.24063 10.5472 9.24063 12.0658C9.24063 13.5844 10.4751 14.8221 11.9969 14.8221C13.5188 14.8221 14.7532 13.5844 14.7532 12.0658C14.7532 11.7425 14.4887 11.478 14.1654 11.478Z" fill="black"/>
</svg>
