<svg width="24" height="24" viewBox="0 0 24 24" fill="none" xmlns="http://www.w3.org/2000/svg">
<path d="M18.2248 5.77253C17.9963 5.54071 17.6241 5.54397 17.3923 5.77253L15.3026 7.86216C12.7134 6.68674 9.95118 6.97407 7.31628 8.69475C5.35398 9.97466 4.16223 11.5843 4.11326 11.6529C3.95653 11.8684 3.96306 12.1622 4.12958 12.3712C5.24623 13.7425 6.41512 14.8102 7.61014 15.5546L5.77191 17.3929C5.54335 17.6214 5.54335 17.9936 5.77191 18.2255C5.88619 18.3397 6.03638 18.3985 6.18657 18.3985C6.33676 18.3985 6.48696 18.3397 6.60123 18.2255L18.2248 6.60512C18.4534 6.37656 18.4534 6.00435 18.2248 5.77253ZM10.5454 12.6194C10.4605 12.4267 10.4181 12.2178 10.4181 11.999C10.4181 11.5778 10.5813 11.1795 10.8817 10.8791C11.3519 10.4089 12.0474 10.2979 12.622 10.5428L10.5454 12.6194ZM13.4905 9.67754C12.4228 8.99187 10.9829 9.11595 10.0524 10.0465C9.52999 10.5689 9.24593 11.2611 9.24593 11.9957C9.24593 12.5312 9.39939 13.0438 9.68345 13.4846L8.47211 14.6959C7.41097 14.0821 6.36615 13.1744 5.35072 11.9892C5.78497 11.4799 6.70245 10.4971 7.9595 9.67754C10.134 8.2605 12.2988 7.95359 14.408 8.76006L13.4905 9.67754Z" fill="black"/>
<path d="M19.8705 11.6269C19.064 10.6343 18.2281 9.79843 17.3792 9.13562C17.1213 8.93645 16.7523 8.98216 16.5499 9.23684C16.3507 9.49151 16.3964 9.86046 16.6511 10.0629C17.3237 10.5886 17.9963 11.2416 18.6493 12.0056C18.2641 12.4562 17.5131 13.2659 16.4944 14.0071C14.5321 15.4339 12.5502 15.9498 10.6075 15.5384C10.2908 15.4698 9.97734 15.6755 9.91204 15.9923C9.84347 16.309 10.0492 16.6224 10.3659 16.6877C10.872 16.7955 11.3813 16.8477 11.8939 16.8477C12.6645 16.8477 13.4416 16.7269 14.2154 16.4853C15.2308 16.1686 16.2397 15.6462 17.216 14.9344C18.8616 13.7296 19.8443 12.4007 19.8868 12.3452C20.0435 12.1297 20.037 11.8358 19.8705 11.6269Z" fill="black"/>
</svg>
