<svg width="16" height="16" viewBox="0 0 16 16" fill="none" xmlns="http://www.w3.org/2000/svg">
<path d="M9.00287 9.35423C8.70432 9.55354 8.35754 9.6589 8 9.6589C7.64248 9.6589 7.2957 9.55354 6.99716 9.35423L2.0799 6.0714C2.05262 6.05319 2.02604 6.0342 2 6.01467V11.3939C2 12.0107 2.4998 12.5002 3.10468 12.5002H12.8953C13.5112 12.5002 14 11.9997 14 11.3939V6.01465C13.9739 6.03422 13.9473 6.05326 13.9199 6.07149L9.00287 9.35423Z" fill="#232631"/>
<path d="M2.46992 5.48538L7.38718 8.76823C7.57332 8.89251 7.78665 8.95463 7.99998 8.95463C8.21333 8.95463 8.42668 8.89249 8.61282 8.76823L13.5301 5.48538C13.8243 5.28905 14 4.96047 14 4.60584C14 3.99606 13.5046 3.5 12.8957 3.5H3.1043C2.4954 3.50002 2 3.99609 2 4.60643C2 4.96047 2.17569 5.28905 2.46992 5.48538Z" fill="#232631"/>
</svg>
